<svg width="60" height="60" viewBox="0 0 60 60" fill="none" xmlns="http://www.w3.org/2000/svg">
<rect width="60" height="60" rx="30" fill="#D9D9D9"/>
<path d="M22.5544 43.5731C22.3461 43.7381 22.0703 43.8527 21.7269 43.9168C21.4125 43.9841 20.9855 44.0106 20.446 43.9962C19.7042 43.9603 18.755 43.8158 17.5985 43.5628C16.429 43.2941 15.1595 42.8706 13.7901 42.2925C12.4207 41.7144 11.0427 40.9482 9.65616 39.9938C8.28565 39.0268 7.02046 37.8334 5.86059 36.4136C4.57185 34.836 3.72158 33.3268 3.30977 31.886C2.91398 30.4326 2.89746 29.1203 3.26022 27.9494C3.6261 26.7499 4.31362 25.7504 5.32279 24.9508C6.05964 24.367 6.90465 23.9963 7.85782 23.8388C8.81412 23.6528 9.87737 23.8238 11.0476 24.3519C12.2049 24.8641 13.4744 25.8852 14.8562 27.4151C15.5486 28.1658 16.0703 28.7399 16.4214 29.1373C16.7756 29.5064 17.0365 29.7934 17.2041 29.9985C17.3747 30.1751 17.5358 30.3723 17.6873 30.5901C17.842 30.7794 18.074 31.0633 18.3833 31.4419C18.6926 31.8205 19.163 32.3964 19.7944 33.1694C20.2068 33.6742 20.5659 34.0653 20.8717 34.3427C21.1646 34.6044 21.5033 34.5829 21.8878 34.2783C22.3043 33.9483 22.3981 33.6271 22.1692 33.3147C21.9435 32.9738 21.6325 32.5446 21.2361 32.0271C20.9783 31.7116 20.7399 31.4197 20.5208 31.1515C20.2889 30.8676 20.0182 30.5363 19.7089 30.1577C19.3868 29.7633 18.9824 29.2521 18.4958 28.6242C17.9963 27.9805 17.3726 27.1363 16.6248 26.0917C15.4193 24.4222 14.6799 22.9681 14.4068 21.7293C14.1207 20.4747 14.1643 19.4137 14.5375 18.5462C14.8979 17.663 15.4465 16.9295 16.1833 16.3457C17.1925 15.5461 18.3231 15.1051 19.575 15.0226C20.8302 14.9117 22.1282 15.2086 23.469 15.9133C24.8259 16.6052 26.1488 17.74 27.4375 19.3175C28.5974 20.7373 29.5021 22.2163 30.1518 23.7545C30.8175 25.28 31.2904 26.7633 31.5706 28.2045C31.8508 29.6456 31.9989 30.9575 32.0151 32.1401C32.0184 33.3069 31.9584 34.251 31.8352 34.9723C31.7499 35.4816 31.6323 35.8867 31.4822 36.1875C31.345 36.504 31.1723 36.7448 30.9641 36.9098C30.5155 37.2652 30.0196 37.3203 29.4763 37.0751C28.933 36.83 28.5192 36.4042 28.235 35.7979C28.151 35.6305 28.004 35.3052 27.794 34.822C27.5999 34.326 27.3479 33.7591 27.0379 33.1212C26.731 32.4549 26.3872 31.7917 26.0065 31.1319C25.6257 30.4721 25.2227 29.8818 24.7974 29.3612C24.2433 28.6829 23.7363 28.24 23.2766 28.0325C22.8169 27.8251 22.4669 27.8166 22.2266 28.0069C22.0184 28.1719 21.9339 28.4077 21.9733 28.7144C22.0287 29.0083 22.1404 29.3226 22.3083 29.6573C22.4922 29.9794 22.6857 30.2808 22.8888 30.5617C23.0789 30.8268 23.2256 31.0225 23.3287 31.1487C24.7592 32.8997 25.5577 34.281 25.7243 35.2924C25.9069 36.2911 25.5817 37.1205 24.7488 37.7805C23.9158 38.4405 23.0156 38.582 22.0481 38.2052C21.0966 37.8157 19.9056 36.7454 18.4751 34.9943C18.372 34.8681 18.2093 34.6851 17.9871 34.4454C17.752 34.1899 17.4864 33.9456 17.1904 33.7124C16.9104 33.4665 16.6225 33.2918 16.3268 33.1883C16.0471 33.072 15.8032 33.0964 15.595 33.2614C15.3547 33.4518 15.2882 33.7903 15.3955 34.277C15.5028 34.7636 15.8336 35.3462 16.3877 36.0245C16.813 36.5451 17.3121 37.0592 17.8851 37.5667C18.458 38.0743 19.0341 38.5533 19.6133 39.0039C20.1956 39.4261 20.704 39.7899 21.1383 40.0955C21.5886 40.3883 21.8878 40.593 22.0358 40.7096C22.5764 41.1129 22.9101 41.6021 23.0369 42.1773C23.1637 42.7525 23.0029 43.2177 22.5544 43.5731Z" fill="#0A0A0A"/>
<path d="M37.4456 43.5731C37.6539 43.7381 37.9297 43.8527 38.2731 43.9168C38.5875 43.9841 39.0145 44.0106 39.554 43.9962C40.2958 43.9603 41.245 43.8158 42.4016 43.5628C43.571 43.2941 44.8405 42.8706 46.2099 42.2925C47.5793 41.7144 48.9573 40.9482 50.3438 39.9938C51.7144 39.0268 52.9795 37.8334 54.1394 36.4136C55.4282 34.836 56.2784 33.3268 56.6902 31.886C57.086 30.4326 57.1025 29.1203 56.7398 27.9494C56.3739 26.7499 55.6864 25.7504 54.6772 24.9508C53.9404 24.367 53.0954 23.9963 52.1422 23.8388C51.1859 23.6528 50.1226 23.8238 48.9524 24.3519C47.7951 24.8641 46.5256 25.8852 45.1439 27.4151C44.4514 28.1658 43.9297 28.7399 43.5786 29.1373C43.2244 29.5064 42.9635 29.7934 42.7959 29.9985C42.6253 30.1751 42.4642 30.3723 42.3127 30.5901C42.158 30.7794 41.926 31.0633 41.6167 31.4419C41.3074 31.8205 40.8371 32.3964 40.2056 33.1694C39.7932 33.6742 39.4341 34.0653 39.1283 34.3427C38.8354 34.6044 38.4967 34.5829 38.1122 34.2783C37.6957 33.9483 37.6019 33.6271 37.8308 33.3147C38.0565 32.9738 38.3675 32.5446 38.7639 32.0271C39.0217 31.7116 39.2601 31.4197 39.4792 31.1515C39.7111 30.8676 39.9818 30.5363 40.2911 30.1577C40.6132 29.7633 41.0176 29.2521 41.5042 28.6242C42.0037 27.9805 42.6274 27.1363 43.3752 26.0917C44.5807 24.4222 45.3201 22.9681 45.5932 21.7293C45.8793 20.4747 45.8357 19.4137 45.4625 18.5462C45.1021 17.663 44.5535 16.9295 43.8167 16.3457C42.8075 15.5461 41.6769 15.1051 40.425 15.0226C39.1698 14.9117 37.8718 15.2086 36.531 15.9133C35.1741 16.6052 33.8512 17.74 32.5625 19.3175C31.4026 20.7373 30.4979 22.2163 29.8482 23.7545C29.1825 25.28 28.7096 26.7633 28.4294 28.2045C28.1492 29.6456 28.0011 30.9575 27.9849 32.1401C27.9816 33.3069 28.0416 34.251 28.1648 34.9723C28.2501 35.4816 28.3677 35.8867 28.5178 36.1875C28.655 36.504 28.8277 36.7448 29.0359 36.9098C29.4845 37.2652 29.9804 37.3203 30.5237 37.0751C31.067 36.83 31.4808 36.4042 31.765 35.7979C31.849 35.6305 31.996 35.3052 32.206 34.822C32.4001 34.326 32.6521 33.7591 32.9621 33.1212C33.269 32.4549 33.6128 31.7917 33.9935 31.1319C34.3743 30.4721 34.7773 29.8818 35.2026 29.3612C35.7567 28.6829 36.2637 28.24 36.7234 28.0325C37.1831 27.8251 37.5331 27.8166 37.7734 28.0069C37.9816 28.1719 38.0661 28.4077 38.0267 28.7144C37.9713 29.0083 37.8596 29.3226 37.6917 29.6573C37.5078 29.9794 37.3143 30.2808 37.1112 30.5617C36.9211 30.8268 36.7744 31.0225 36.6713 31.1487C35.2408 32.8997 34.4423 34.281 34.2757 35.2924C34.0931 36.2911 34.4183 37.1205 35.2512 37.7805C36.0842 38.4405 36.9844 38.582 37.9519 38.2052C38.9034 37.8157 40.0944 36.7454 41.5249 34.9943C41.628 34.8681 41.7907 34.6851 42.0129 34.4454C42.248 34.1899 42.5136 33.9456 42.8096 33.7124C43.0896 33.4665 43.3775 33.2918 43.6732 33.1883C43.9529 33.072 44.1968 33.0964 44.405 33.2614C44.6453 33.4518 44.7118 33.7903 44.6045 34.277C44.4972 34.7636 44.1664 35.3462 43.6123 36.0245C43.187 36.5451 42.6879 37.0592 42.1149 37.5667C41.542 38.0743 40.9659 38.5533 40.3867 39.0039C39.8044 39.4261 39.296 39.7899 38.8617 40.0955C38.4114 40.3883 38.1122 40.593 37.9642 40.7096C37.4236 41.1129 37.0899 41.6021 36.9631 42.1773C36.8363 42.7525 36.9971 43.2177 37.4456 43.5731Z" fill="#0A0A0A"/>
</svg>