 <svg width="28" height="28" viewBox="0 0 28 28" fill="none" xmlns="http://www.w3.org/2000/svg">
    <g clip-path="url(#clip0_37_591)">
    <path d="M10.137 20.8302C10.029 20.9171 9.88587 20.9775 9.70772 21.0113C9.54456 21.0467 9.32304 21.0607 9.04315 21.0531C8.65829 21.0342 8.16582 20.9581 7.56574 20.8248C6.95898 20.6832 6.30035 20.4601 5.58985 20.1556C4.87935 19.851 4.16442 19.4474 3.44505 18.9446C2.73399 18.4351 2.07757 17.8064 1.4758 17.0584C0.807161 16.2274 0.366014 15.4323 0.152356 14.6732C-0.052991 13.9075 -0.0615611 13.2162 0.126646 12.5993C0.316477 11.9674 0.673185 11.4409 1.19677 11.0196C1.57907 10.7121 2.01748 10.5168 2.51202 10.4338C3.00817 10.3358 3.55982 10.4259 4.16696 10.7041C4.76741 10.974 5.42608 11.5119 6.14296 12.3179C6.50221 12.7133 6.77291 13.0158 6.95507 13.2252C7.13885 13.4196 7.2742 13.5708 7.36112 13.6788C7.44967 13.7719 7.53325 13.8758 7.61186 13.9905C7.6921 14.0902 7.81245 14.2398 7.97292 14.4393C8.1334 14.6387 8.37745 14.9421 8.70508 15.3493C8.91904 15.6153 9.10535 15.8213 9.26401 15.9675C9.41599 16.1053 9.59171 16.094 9.79117 15.9335C10.0072 15.7597 10.0559 15.5905 9.93719 15.4259C9.82009 15.2463 9.65871 15.0202 9.45306 14.7475C9.31933 14.5813 9.19563 14.4276 9.08196 14.2863C8.96161 14.1367 8.8212 13.9622 8.66072 13.7627C8.49356 13.5549 8.28376 13.2856 8.0313 12.9548C7.77215 12.6157 7.44858 12.171 7.06059 11.6207C6.43513 10.7411 6.05154 9.97508 5.9098 9.32245C5.76138 8.66152 5.784 8.10256 5.97764 7.64558C6.1646 7.18029 6.44923 6.79386 6.83153 6.48628C7.35512 6.06504 7.94169 5.8327 8.59126 5.78926C9.24244 5.73083 9.91588 5.88723 10.6116 6.25846C11.3156 6.62301 12.0019 7.22083 12.6705 8.05191C13.2723 8.79989 13.7417 9.57905 14.0788 10.3894C14.4242 11.1931 14.6695 11.9745 14.8149 12.7337C14.9603 13.493 15.0371 14.1841 15.0455 14.8071C15.0472 15.4218 15.0161 15.9191 14.9522 16.2991C14.9079 16.5674 14.8469 16.7808 14.769 16.9393C14.6979 17.1061 14.6083 17.233 14.5002 17.3199C14.2675 17.5071 14.0102 17.5361 13.7283 17.407C13.4464 17.2778 13.2318 17.0535 13.0843 16.7341C13.0407 16.6459 12.9645 16.4745 12.8555 16.2199C12.7548 15.9587 12.624 15.66 12.4632 15.324C12.304 14.9729 12.1256 14.6236 11.9281 14.2759C11.7305 13.9283 11.5214 13.6174 11.3008 13.3431C11.0133 12.9858 10.7503 12.7524 10.5117 12.6431C10.2732 12.5339 10.0916 12.5294 9.96696 12.6297C9.85892 12.7166 9.81512 12.8408 9.83556 13.0023C9.8643 13.1572 9.92223 13.3228 10.0093 13.4991C10.1048 13.6688 10.2052 13.8276 10.3105 13.9756C10.4092 14.1152 10.4853 14.2183 10.5388 14.2848C11.2809 15.2073 11.6952 15.935 11.7817 16.4678C11.8764 16.9939 11.7077 17.4309 11.2755 17.7786C10.8434 18.1262 10.3763 18.2008 9.87433 18.0023C9.38067 17.7971 8.76275 17.2332 8.02056 16.3107C7.96707 16.2443 7.88268 16.1479 7.76739 16.0216C7.64541 15.887 7.50762 15.7583 7.35402 15.6354C7.20874 15.5059 7.05939 15.4138 6.90598 15.3593C6.76088 15.298 6.63431 15.3109 6.52627 15.3978C6.40161 15.4981 6.36711 15.6764 6.4228 15.9328C6.47848 16.1892 6.65007 16.4961 6.93759 16.8535C7.15824 17.1277 7.41719 17.3985 7.71445 17.6659C8.01171 17.9333 8.3106 18.1857 8.61111 18.4231C8.91324 18.6455 9.17698 18.8372 9.40231 18.9981C9.63596 19.1524 9.79118 19.2603 9.86798 19.3217C10.1484 19.5341 10.3216 19.7919 10.3874 20.0949C10.4532 20.3979 10.3697 20.643 10.137 20.8302Z" fill="white"/>
    <path d="M17.863 20.8302C17.9711 20.9171 18.1142 20.9775 18.2923 21.0113C18.4555 21.0467 18.677 21.0607 18.9569 21.0531C19.3418 21.0342 19.8342 20.9581 20.4343 20.8248C21.0411 20.6832 21.6997 20.4601 22.4102 20.1556C23.1207 19.851 23.8356 19.4474 24.555 18.9446C25.2661 18.4351 25.9225 17.8064 26.5243 17.0584C27.1929 16.2274 27.634 15.4323 27.8477 14.6732C28.053 13.9075 28.0616 13.2162 27.8734 12.5993C27.6836 11.9674 27.3269 11.4409 26.8033 11.0196C26.421 10.7121 25.9826 10.5168 25.488 10.4338C24.9919 10.3358 24.4402 10.4259 23.8331 10.7041C23.2326 10.974 22.574 11.5119 21.8571 12.3179C21.4978 12.7133 21.2271 13.0158 21.045 13.2252C20.8612 13.4196 20.7259 13.5708 20.6389 13.6788C20.5504 13.7719 20.4668 13.8758 20.3882 13.9905C20.308 14.0902 20.1876 14.2398 20.0271 14.4393C19.8667 14.6387 19.6226 14.9421 19.295 15.3493C19.081 15.6153 18.8947 15.8213 18.736 15.9675C18.5841 16.1053 18.4083 16.094 18.2089 15.9335C17.9928 15.7597 17.9441 15.5905 18.0629 15.4259C18.18 15.2463 18.3413 15.0202 18.547 14.7475C18.6807 14.5813 18.8044 14.4276 18.9181 14.2863C19.0384 14.1367 19.1789 13.9622 19.3393 13.7627C19.5065 13.5549 19.7163 13.2856 19.9688 12.9548C20.2279 12.6157 20.5515 12.171 20.9395 11.6207C21.5649 10.7411 21.9485 9.97508 22.0902 9.32245C22.2387 8.66152 22.2161 8.10256 22.0224 7.64558C21.8354 7.18029 21.5508 6.79386 21.1685 6.48628C20.6449 6.06504 20.0584 5.8327 19.4088 5.78926C18.7576 5.73083 18.0842 5.88723 17.3885 6.25846C16.6845 6.62301 15.9982 7.22083 15.3295 8.05191C14.7278 8.79989 14.2583 9.57905 13.9213 10.3894C13.5759 11.1931 13.3305 11.9745 13.1851 12.7337C13.0398 13.493 12.9629 14.1841 12.9545 14.8071C12.9528 15.4218 12.984 15.9191 13.0479 16.2991C13.0921 16.5674 13.1532 16.7808 13.231 16.9393C13.3022 17.1061 13.3918 17.233 13.4998 17.3199C13.7325 17.5071 13.9898 17.5361 14.2717 17.407C14.5536 17.2778 14.7683 17.0535 14.9158 16.7341C14.9593 16.6459 15.0356 16.4745 15.1446 16.2199C15.2453 15.9587 15.376 15.66 15.5369 15.324C15.6961 14.9729 15.8745 14.6236 16.072 14.2759C16.2695 13.9283 16.4786 13.6174 16.6993 13.3431C16.9868 12.9858 17.2498 12.7524 17.4883 12.6431C17.7268 12.5339 17.9084 12.5294 18.0331 12.6297C18.1411 12.7166 18.1849 12.8408 18.1645 13.0023C18.1357 13.1572 18.0778 13.3228 17.9907 13.4991C17.8953 13.6688 17.7949 13.8276 17.6895 13.9756C17.5909 14.1152 17.5148 14.2183 17.4613 14.2848C16.7191 15.2073 16.3048 15.935 16.2184 16.4678C16.1236 16.9939 16.2923 17.4309 16.7245 17.7786C17.1567 18.1262 17.6237 18.2008 18.1257 18.0023C18.6194 17.7971 19.2373 17.2332 19.9795 16.3107C20.033 16.2443 20.1174 16.1479 20.2327 16.0216C20.3546 15.887 20.4924 15.7583 20.646 15.6354C20.7913 15.5059 20.9407 15.4138 21.0941 15.3593C21.2392 15.298 21.3657 15.3109 21.4738 15.3978C21.5984 15.4981 21.6329 15.6764 21.5773 15.9328C21.5216 16.1892 21.35 16.4961 21.0625 16.8535C20.8418 17.1277 20.5829 17.3985 20.2856 17.6659C19.9883 17.9333 19.6895 18.1857 19.3889 18.4231C19.0868 18.6455 18.8231 18.8372 18.5977 18.9981C18.3641 19.1524 18.2089 19.2603 18.1321 19.3217C17.8516 19.5341 17.6785 19.7919 17.6127 20.0949C17.5469 20.3979 17.6303 20.643 17.863 20.8302Z" fill="white"/>
    </g>
    <defs>
    <clipPath id="clip0_37_591">
    <rect width="28" height="28" fill="white"/>
    </clipPath>
    </defs>
</svg>